<svg width="504" height="187" xmlns="http://www.w3.org/2000/svg">

 <metadata id="metadata7">image/svg+xml</metadata>
 <g>
  <title>background</title>
  <rect fill="none" id="canvas_background" height="189" width="506" y="-1" x="-1"/>
 </g>
 <g>
  <title>Layer 1</title>
  <rect stroke-width="0" fill="#666666" id="rect3004" width="480" height="26.487329" x="12.324883" y="81.756416"/>
  <path stroke="#565248" stroke-width="0" fill="#d9bb7a" d="m120.374782,12.111733c-12.456637,0 -21.646691,2.336898 -28.688563,6.156405c-0.030504,0.01632 -0.06018,0.037886 -0.090615,0.054788c-10.465843,5.24074 -15.865629,13.237741 -19.663355,21.820571c-8.415536,16.176146 -12.824297,34.443517 -32.367513,40.271658c-0.762015,0.227255 -1.520619,0.435334 -2.283486,0.655712l0,26.938853c0.763418,0.220785 1.52088,0.446467 2.283486,0.673897c37.549145,11.197866 7.502901,68.303305 80.810046,68.303305c0.426576,0 0.885912,-0.019234 1.341095,-0.036137c0.827756,0.016903 1.662807,0.036137 2.519084,0.036137c17.522039,0 59.794925,-14.935656 76.079967,-14.935656l107.432568,0c16.2851,0 58.557928,14.935656 76.080025,14.935656c0.856213,0 1.691317,-0.019817 2.519055,-0.036137c0.455189,0.017486 0.914496,0.036137 1.341095,0.036137c73.307133,0 43.260918,-57.105439 80.810075,-68.303305c0.762554,-0.22743 1.520063,-0.453111 2.283428,-0.673897l0,-26.938853c-0.762844,-0.220377 -1.521454,-0.428457 -2.283428,-0.655712c-19.543338,-5.828141 -23.951989,-24.095512 -32.367571,-40.271658c-3.797692,-8.582829 -9.197506,-16.579831 -19.663326,-21.820571c-0.030736,-0.016903 -0.060139,-0.037886 -0.090586,-0.054788c-7.041895,-3.819506 -16.231978,-6.156405 -28.688592,-6.156405c-0.419466,0 -0.860215,0.019817 -1.304849,0.036137c-0.839395,-0.016903 -1.686909,-0.036137 -2.555301,-0.036137c-17.522097,0 -59.794925,14.935656 -76.080025,14.935656l-107.432568,0c-16.285042,0 -58.557928,-14.935656 -76.079967,-14.935656c-0.868467,0 -1.715935,0.019817 -2.55533,0.036137c-0.444658,-0.016903 -0.885378,-0.036137 -1.304849,-0.036137z" id="rect3776"/>
  <path stroke="#986601" stroke-width="0" fill="#fdca01" d="m126.586153,12.123512c-1.718221,0 -3.351965,0.064632 -4.918642,0.201007l0,165.063442c1.572613,0.095887 3.208042,0.146187 4.918642,0.146187c0.339515,0 0.705104,-0.019589 1.067389,-0.036547c0.658818,0.016958 1.323442,0.036547 2.00496,0.036547c5.600857,0 14.388085,-2.425149 23.727761,-5.317554l0,-154.775529c-9.339676,-2.892404 -18.126904,-5.317554 -23.727761,-5.317554c-0.69122,0 -1.365727,0.020174 -2.033808,0.036547c-0.353907,-0.016958 -0.70468,-0.036547 -1.03854,-0.036547z" id="rect3796"/>
  <path stroke="#430086" fill="#9e0097" stroke-width="0" stroke-miterlimit="4" d="m180.494019,23.766316l0,141.462609c6.533219,-1.90198 12.309898,-3.276283 16.198874,-3.276283l15.282227,0l0,-134.910043l-15.282227,0c-3.888976,0 -9.665655,-1.374303 -16.198874,-3.276283z" id="rect3798"/>
  <path stroke="#980101" stroke-width="0" fill="#f44800" d="m240.073859,27.059902l0,134.624731l31.322649,0l0,-134.624731l-31.322649,0z" id="rect3800"/>
  <path stroke-width="0" fill="#c68401" d="m385.155209,11.180836c-2.961341,0 -6.820213,0.710521 -11.182622,1.803136l0,162.944629c4.362409,1.092615 8.221281,1.803136 11.182622,1.803136c0.673879,0 1.331143,-0.020313 1.98261,-0.036799c0.358255,0.017663 0.71975,0.036799 1.055503,0.036799c6.757271,0 12.388657,-0.792561 17.130499,-2.207922l0,-161.141493c-4.650556,-2.024882 -10.2541,-3.201487 -17.130499,-3.201487c-0.330138,0 -0.677028,0.020313 -1.026976,0.036799c-0.660642,-0.017075 -1.32772,-0.036799 -2.011138,-0.036799z" id="rect3819"/>
  <path stroke="#7f3f00" transform="rotate(-180 316.73455810546875,94.24763488769533) " fill="#bf5f00" stroke-width="0" stroke-miterlimit="4" d="m300.994016,22.766332l0,142.9626c6.53322,-1.922147 12.309898,-3.311022 16.198874,-3.311022l15.282227,0l0,-136.340555l-15.282227,0c-3.888976,0 -9.665654,-1.388875 -16.198874,-3.311023z" id="svg_2"/>
 </g>
</svg>