<svg width="504" height="187" xmlns="http://www.w3.org/2000/svg">
 <metadata id="metadata7">image/svg+xml</metadata>

 <g>
  <title>background</title>
  <rect x="-1" y="-1" width="506" height="189" id="canvas_background" fill="none"/>
 </g>
 <g>
  <title>Layer 1</title>
  <rect y="81.756416" x="12.324883" height="26.487329" width="480" id="rect3004" fill="#666666" stroke-width="0"/>
  <path id="rect3776" d="m120.37478,12.11173c-12.45664,0 -21.64669,2.3369 -28.68856,6.15641c-0.0305,0.01632 -0.06018,0.03788 -0.09062,0.05479c-10.46584,5.24074 -15.86563,13.23774 -19.66335,21.82057c-8.41554,16.17614 -12.8243,34.44351 -32.36751,40.27165c-0.76202,0.22726 -1.52062,0.43534 -2.28349,0.65572l0,26.93885c0.76342,0.22078 1.52088,0.44647 2.28349,0.6739c37.54914,11.19786 7.5029,68.3033 80.81004,68.3033c0.42658,0 0.88591,-0.01923 1.3411,-0.03614c0.82775,0.01691 1.6628,0.03614 2.51908,0.03614c17.52204,0 59.79493,-14.93565 76.07997,-14.93565l107.43257,0c16.2851,0 58.55792,14.93565 76.08002,14.93565c0.85621,0 1.69132,-0.01981 2.51906,-0.03614c0.45519,0.01749 0.91449,0.03614 1.34109,0.03614c73.30713,0 43.26092,-57.10544 80.81008,-68.3033c0.76255,-0.22743 1.52006,-0.45311 2.28342,-0.6739l0,-26.93885c-0.76284,-0.22038 -1.52145,-0.42846 -2.28342,-0.65572c-19.54334,-5.82814 -23.95199,-24.09551 -32.36757,-40.27165c-3.7977,-8.58283 -9.19751,-16.57983 -19.66333,-21.82057c-0.03074,-0.01691 -0.06014,-0.03789 -0.09059,-0.05479c-7.04189,-3.81951 -16.23197,-6.15641 -28.68859,-6.15641c-0.41946,0 -0.86021,0.01982 -1.30485,0.03614c-0.83939,-0.0169 -1.68691,-0.03614 -2.5553,-0.03614c-17.5221,0 -59.79492,14.93566 -76.08002,14.93566l-107.43257,0c-16.28504,0 -58.55793,-14.93566 -76.07997,-14.93566c-0.86847,0 -1.71593,0.01982 -2.55533,0.03614c-0.44466,-0.0169 -0.88538,-0.03614 -1.30485,-0.03614z" fill="#d9bb7a" stroke-width="0" stroke="#565248"/>
  <path stroke="#986601" id="rect3796" d="m137.417354,16.480258l0,156.124008c0.14491,3.619712 4.934492,0.888265 7.865991,1.013265c2.931499,0.124999 14.513089,-3.168802 23.852759,-5.904566l0,-146.393256c-9.33967,-2.735765 -17.564405,-5.279572 -24.290255,-6.154564c-7.35112,-1.124114 -7.514806,-2.935723 -7.428495,1.315113z" fill="#fdca01" stroke-width="0"/>
  <path id="rect3798" d="m180.49402,23.76632l0,141.4626c6.53322,-1.90198 12.3099,-3.27628 16.19887,-3.27628l15.28223,0l0,-134.91004l-15.28223,0c-3.88897,0 -9.66565,-1.3743 -16.19887,-3.27628z" stroke-miterlimit="4" stroke-width="0" fill="#9e0097" stroke="#430086"/>
  <path id="rect3800" d="m222.407356,27.39323l0,134.62473l31.32265,0l0,-134.62473l-31.32265,0z" fill="#f44800" stroke-width="0" stroke="#980101"/>
  <path id="rect3819" d="m385.15521,11.18084c-2.96134,0 -6.82021,0.71052 -11.18262,1.80313l0,162.94463c4.36241,1.09262 8.22128,1.80314 11.18262,1.80314c0.67388,0 1.33114,-0.02032 1.98261,-0.0368c0.35825,0.01766 0.71975,0.0368 1.0555,0.0368c6.75727,0 12.38866,-0.79256 17.1305,-2.20793l0,-161.14149c-4.65055,-2.02488 -10.2541,-3.20149 -17.1305,-3.20149c-0.33014,0 -0.67703,0.02032 -1.02697,0.0368c-0.66065,-0.01707 -1.32772,-0.0368 -2.01114,-0.0368l0,0.00001z" fill="#c68401" stroke-width="0"/>
  <path id="svg_2" d="m300.99402,22.76633l0,142.9626c6.53322,-1.92214 12.30989,-3.31102 16.19887,-3.31102l15.28223,0l0,-136.34055l-15.28223,0c-3.88898,0 -9.66565,-1.38888 -16.19887,-3.31103z" stroke-miterlimit="4" stroke-width="0" fill="#bf5f00" transform="rotate(-180 316.73455810546875,94.24763488769533) " stroke="#7f3f00"/>
  <path stroke="#986601" transform="rotate(-180 109.77672576904297,94.45382690429688) " id="svg_3" d="m98.83599,11.540129c-1.71822,0 -3.35196,0.064789 -4.91864,0.201518l0,165.479315c1.57261,0.096132 3.20804,0.146557 4.91864,0.146557c0.33952,0 0.70511,-0.019634 1.06739,-0.036645c0.65882,0.01701 1.32344,0.036645 2.00496,0.036645c5.60086,0 14.38809,-2.431258 23.72776,-5.33096l0,-155.165471c-9.33967,-2.899701 -18.1269,-5.33096 -23.72776,-5.33096c-0.69122,0 -1.36572,0.020229 -2.03381,0.036645c-0.3539,-0.01701 -0.70468,-0.036645 -1.03854,-0.036645z" fill="#fdca01" stroke-width="0"/>
 </g>
</svg>